<svg xmlns="http://www.w3.org/2000/svg" viewBox="0 0 4 4" shape-rendering="crispEdges">
<rect x="0" y="0" width="1" height="1" fill="#5d82b8"/><rect x="1" y="0" width="1" height="1" fill="#c6caca"/><rect x="2" y="0" width="1" height="1" fill="#9ea6a6"/><rect x="3" y="0" width="1" height="1" fill="#ece9e7"/>
<rect x="0" y="1" width="1" height="1" fill="#b07a62"/><rect x="1" y="1" width="1" height="1" fill="#ffffff"/><rect x="2" y="1" width="1" height="1" fill="#ffffff"/><rect x="3" y="1" width="1" height="1" fill="#b07a62"/>
<rect x="0" y="2" width="1" height="1" fill="#d7d3d0"/><rect x="1" y="2" width="1" height="1" fill="#ffffff"/><rect x="2" y="2" width="1" height="1" fill="#ffffff"/><rect x="3" y="2" width="1" height="1" fill="#8c888d"/>
<rect x="0" y="3" width="1" height="1" fill="#a7a6a1"/><rect x="1" y="3" width="1" height="1" fill="#dcd5d1"/><rect x="2" y="3" width="1" height="1" fill="#c6b1a3"/><rect x="3" y="3" width="1" height="1" fill="#c1602f"/>
</svg>
